<?xml version="1.0" encoding="UTF-8"?>
<svg width="24px" height="24px" viewBox="0 0 24 24" version="1.1" xmlns="http://www.w3.org/2000/svg" xmlns:xlink="http://www.w3.org/1999/xlink">
    <title>Icon/common/refresh</title>
    <g id="Icon/common/refresh" stroke="none" stroke-width="1" fill-rule="evenodd">
        <path d="M12.0002,0.9998 C18.0652,0.9998 23.0002,5.9348 23.0002,11.9998 C23.0002,15.6208 21.2112,18.9648 18.3152,20.9998 L18.3152,20.9998 L20.6912,20.9998 C21.2442,20.9998 21.6912,21.4478 21.6912,21.9998 C21.6912,22.5518 21.2442,22.9998 20.6912,22.9998 L20.6912,22.9998 L15.9152,22.9998 C15.1582,22.9958 14.5502,22.3788 14.5542,21.6228 L14.5542,21.6228 L14.5712,16.7558 C14.5732,16.2038 15.0202,15.7588 15.5712,15.7588 L15.5712,15.7588 C16.1272,15.7608 16.5732,16.2098 16.5712,16.7618 L16.5712,16.7618 L16.5602,19.7418 C19.2802,18.1358 21.0002,15.2048 21.0002,11.9998 C21.0002,7.0378 16.9632,2.9998 12.0002,2.9998 C11.4472,2.9998 11.0002,2.5518 11.0002,1.9998 C11.0002,1.4478 11.4472,0.9998 12.0002,0.9998 Z M8.08,1 C8.836,1.004 9.444,1.621 9.44,2.375 L9.44,2.375 L9.423,7.22 C9.421,7.771 8.974,8.217 8.423,8.217 L8.423,8.217 C7.867,8.215 7.421,7.766 7.423,7.213 L7.423,7.213 L7.434,4.265 C4.72,5.872 3,8.805 3,12 C3,16.962 7.037,21 12,21 C12.553,21 13,21.448 13,22 C13,22.552 12.553,23 12,23 C5.935,23 1,18.065 1,12 C1,8.387 2.793,5.037 5.688,3 L5.688,3 L3.326,3 C2.773,3 2.326,2.552 2.326,2 C2.326,1.448 2.773,1 3.326,1 L3.326,1 Z" id="Combined-Shape" fill="#000000"></path>
    </g>
</svg>